<svg width="18" height="18" viewBox="0 0 18 18" fill="none" xmlns="http://www.w3.org/2000/svg">
<path d="M5.01415 8.08916C4.81237 7.72608 4.49574 7.44029 4.11396 7.27664C3.73218 7.11299 3.30686 7.08075 2.90478 7.18497C2.50269 7.2892 2.14659 7.52399 1.89238 7.85249C1.63817 8.181 1.50024 8.58462 1.50024 8.99999C1.50024 9.41537 1.63817 9.81898 1.89238 10.1475C2.14659 10.476 2.50269 10.7108 2.90478 10.815C3.30686 10.9192 3.73218 10.887 4.11396 10.7233C4.49574 10.5597 4.81237 10.2739 5.01415 9.91082M5.01415 8.08916C5.16415 8.35916 5.24998 8.66916 5.24998 8.99999C5.24998 9.33082 5.16415 9.64166 5.01415 9.91082M5.01415 8.08916L12.9858 3.66082M5.01415 9.91082L12.9858 14.3392M12.9858 3.66082C13.1027 3.88094 13.2623 4.07555 13.4552 4.23327C13.6482 4.39098 13.8707 4.50865 14.1097 4.57939C14.3486 4.65012 14.5993 4.67251 14.847 4.64524C15.0948 4.61796 15.3346 4.54158 15.5524 4.42054C15.7703 4.29951 15.9618 4.13626 16.1159 3.94034C16.2699 3.74441 16.3833 3.51975 16.4495 3.27948C16.5157 3.03921 16.5333 2.78815 16.5013 2.54099C16.4694 2.29382 16.3885 2.05552 16.2633 1.83999C16.0167 1.41528 15.6133 1.10427 15.1398 0.973836C14.6663 0.8434 14.1606 0.903944 13.7313 1.14245C13.3019 1.38096 12.9833 1.7784 12.8439 2.24932C12.7046 2.72024 12.7555 3.22706 12.9858 3.66082ZM12.9858 14.3392C12.8662 14.5545 12.7902 14.7912 12.7621 15.0359C12.7339 15.2806 12.7543 15.5285 12.822 15.7653C12.8897 16.0021 13.0033 16.2233 13.1565 16.4162C13.3096 16.6091 13.4993 16.77 13.7146 16.8896C13.9299 17.0092 14.1666 17.0852 14.4113 17.1133C14.656 17.1414 14.9039 17.1211 15.1407 17.0534C15.3775 16.9857 15.5987 16.8721 15.7916 16.7189C15.9845 16.5658 16.1454 16.3761 16.265 16.1608C16.5065 15.726 16.5655 15.213 16.4288 14.7347C16.2921 14.2564 15.9711 13.852 15.5362 13.6104C15.1014 13.3688 14.5884 13.3099 14.1101 13.4466C13.6318 13.5832 13.2274 13.9043 12.9858 14.3392Z" stroke="#3A4980" stroke-width="1.5" stroke-linecap="round" stroke-linejoin="round"/>
</svg>
